# File created by Blade
# Date/Time:  Wed Apr 08 17:24:25 2015
#---------------------------------------------------------
:version 1.10
:name HOM
:units
  mass 1.0
  length 1.000000
  angle deg
:documentation
     Acclaim Skeleton File
:root
   axis xyz
   order TX TY TZ RX RY RZ
   position 0.000000 0.000000 0.000000
   orientation 0 0 0
:bonedata
   begin
      id 1
      name Spine_dum
      direction 0.000000 1.000000 0.000000
      length 5.893853
      axis 0.0 0.0 0.0 xyz
   end
   begin
      id 2
      name LeftUpLeg_dum
      direction 1.000000 0.000000 0.000000
      length 3.697939
      axis 0.0 0.0 0.0 xyz
   end
   begin
      id 3
      name RightUpLeg_dum
      direction -1.000000 0.000000 0.000000
      length 3.697939
      axis 0.0 0.0 0.0 xyz
   end
   begin
      id 4
      name Spine
      direction 0.000000 1.000000 0.000000
      length 0.000000
      axis 0.0 0.0 0.0 xyz
      dof rx ry rz
   end
   begin
      id 5
      name Spine_dum1
      direction 0.000000 1.000000 0.000000
      length 16.447146
      axis 0.0 0.0 0.0 xyz
   end
   begin
      id 6
      name Spine_dum2
      direction 0.000000 1.000000 0.000000
      length 10.900383
      axis 0.0 0.0 0.0 xyz
   end
   begin
      id 7
      name Spine_dum3
      direction 0.000000 1.000000 0.000000
      length 10.900383
      axis 0.0 0.0 0.0 xyz
   end
   begin
      id 8
      name Head
      direction 0.000000 1.000000 0.000000
      length 4.527550
      axis 0.0 0.0 0.0 xyz
      dof rx ry rz
   end
   begin
      id 9
      name LeftShoulder
      direction 1.000000 0.000000 0.000000
      length 8.219464
      axis 0.0 0.0 -90.0 xyz
      dof rx ry rz
   end
   begin
      id 10
      name LeftArm
      direction 1.000000 0.000000 0.000000
      length 11.094937
      axis 0.0 0.0 -90.0 xyz
      dof rx ry rz
   end
   begin
      id 11
      name LeftForeArm
      direction 1.000000 0.000000 0.000000
      length 9.103875
      axis 0.0 0.0 -90.0 xyz
      dof ry rz rx
   end
   begin
      id 12
      name LeftHand
      direction 0.000000 0.000000 0.000000
      length 0.000000
      axis 0.0 0.0 -90.0 xyz
      dof rx ry rz
   end
   begin
      id 13
      name LeftHand_dum1
      direction 0.000000 0.000000 0.000000
      length 0.000000
      axis 0.0 0.0 -90.0 xyz
   end
   begin
      id 14
      name LeftHand_dum2
      direction 1.000000 0.000000 0.000000
      length 3.937000
      axis 0.0 0.0 -90.0 xyz
   end
   begin
      id 15
      name LeftHandThumb1
      direction 0.000000 0.000000 1.000000
      length 3.937000
      axis 0.0 0.0 -90.0 xyz
      dof rx rz ry
   end
   begin
      id 16
      name RightShoulder
      direction -1.000000 0.000000 0.000000
      length 8.219464
      axis 0.0 0.0 90.0 xyz
      dof rx ry rz
   end
   begin
      id 17
      name RightArm
      direction -1.000000 0.000000 0.000000
      length 11.094937
      axis 0.0 0.0 90.0 xyz
      dof rx ry rz
   end
   begin
      id 18
      name RightForeArm
      direction -1.000000 0.000000 0.000000
      length 9.103875
      axis 0.0 0.0 90.0 xyz
      dof ry rz rx
   end
   begin
      id 19
      name RightHand
      direction 0.000000 0.000000 0.000000
      length 0.000000
      axis 0.0 0.0 90.0 xyz
      dof rx ry rz
   end
   begin
      id 20
      name RightHand_dum1
      direction 0.000000 0.000000 0.000000
      length 0.000000
      axis 0.0 0.0 90.0 xyz
   end
   begin
      id 21
      name RightHand_dum2
      direction -1.000000 0.000000 0.000000
      length 3.937000
      axis 0.0 0.0 90.0 xyz
   end
   begin
      id 22
      name RightHandThumb1
      direction 0.000000 0.000000 1.000000
      length 3.937000
      axis 0.0 0.0 90.0 xyz
      dof rx rz ry
   end
   begin
      id 23
      name LeftUpLeg
      direction 0.000000 -1.000000 0.000000
      length 16.181467
      axis 0.0 0.0 0.0 xyz
      dof rx ry rz
   end
   begin
      id 24
      name LeftLeg
      direction 0.000000 -1.000000 0.000000
      length 16.501392
      axis 0.0 0.0 0.0 xyz
      dof rx ry rz
   end
   begin
      id 25
      name LeftFoot
      direction 0.000000 -0.258819 0.965926
      length 6.408245
      axis 15.0 0.0 0.0 xyz
      dof rx ry rz
   end
   begin
      id 26
      name LeftToeBase
      direction 0.000000 0.000000 1.000000
      length 2.952750
      axis 0.0 0.0 0.0 xyz
      dof rx ry rz
   end
   begin
      id 27
      name RightUpLeg
      direction 0.000000 -1.000000 0.000000
      length 16.181467
      axis 0.0 0.0 0.0 xyz
      dof rx ry rz
   end
   begin
      id 28
      name RightLeg
      direction 0.000000 -1.000000 0.000000
      length 16.501392
      axis 0.0 0.0 0.0 xyz
      dof rx ry rz
   end
   begin
      id 29
      name RightFoot
      direction 0.000000 -0.258819 0.965926
      length 6.408245
      axis 15.0 0.0 0.0 xyz
      dof rx ry rz
   end
   begin
      id 30
      name RightToeBase
      direction 0.000000 0.000000 1.000000
      length 2.952750
      axis 0.0 0.0 0.0 xyz
      dof rx ry rz
   end
:hierarchy
   begin
      root Spine_dum LeftUpLeg_dum RightUpLeg_dum
      Spine_dum Spine
      LeftUpLeg_dum LeftUpLeg
      RightUpLeg_dum RightUpLeg
      Spine Spine_dum1 Spine_dum2 Spine_dum3
      Spine_dum1 Head
      Spine_dum2 LeftShoulder
      Spine_dum3 RightShoulder
      LeftShoulder LeftArm
      LeftArm LeftForeArm
      LeftForeArm LeftHand
      LeftHand LeftHand_dum1 LeftHand_dum2
      LeftHand_dum1 LeftHandThumb1
      RightShoulder RightArm
      RightArm RightForeArm
      RightForeArm RightHand
      RightHand RightHand_dum1 RightHand_dum2
      RightHand_dum1 RightHandThumb1
      LeftUpLeg LeftLeg
      LeftLeg LeftFoot
      LeftFoot LeftToeBase
      RightUpLeg RightLeg
      RightLeg RightFoot
      RightFoot RightToeBase
   end

# File created by Blade
# Date/Time:  Wed Apr 08 17:24:36 2015
# Frame Rate: 120.000 fps
#------------------------------------------------------
:FULLY-SPECIFIED
:DEGREES
106
root 9.645887 36.493548 -2.911890 -15.369315 -84.474867 38.430623
Spine -17.784092 3.247485 -0.715084
Head 10.493384 17.637223 0.126995
LeftShoulder -5.014800 13.830592 25.054782
LeftArm 18.535868 -30.928647 -53.155937
LeftForeArm 15.954550 -0.000000 20.233102
LeftHand -12.164879 -0.000000 -9.727144
LeftHandThumb1 -26.253704 0.000000 33.147579
RightShoulder -23.659257 -42.227344 -9.080863
RightArm 53.393720 40.393371 59.098289
RightForeArm 6.811514 -0.000000 14.109710
RightHand -2.361316 -0.000000 6.815949
RightHandThumb1 -24.326973 -0.000000 -32.862282
LeftUpLeg -39.690456 21.817637 -7.689668
LeftLeg 29.966580 -0.000000 -0.000000
LeftFoot -8.624488 9.873656 -11.465192
LeftToeBase -7.007678 -0.000000 0.000000
RightUpLeg -25.843885 -8.461752 -1.452483
RightLeg 10.667053 -0.000000 -0.000000
RightFoot -13.276940 -10.648158 16.523346
RightToeBase 10.504949 -0.000000 -0.000000
107
root 9.651166 36.501145 -2.918966 -14.928471 -84.280774 37.982699
Spine -17.755818 3.382520 -0.778960
Head 10.479174 18.064954 0.093864
LeftShoulder -5.025833 13.857026 25.022556
LeftArm 18.518055 -30.565697 -53.754435
LeftForeArm 16.070410 -0.000000 21.283070
LeftHand -12.375260 -0.000000 -9.375534
LeftHandThumb1 -26.253704 0.000000 33.147579
RightShoulder -23.712964 -42.270935 -8.967073
RightArm 53.162212 40.088748 59.227136
RightForeArm 7.030647 0.000000 14.675429
RightHand -2.354562 -0.000000 6.231185
RightHandThumb1 -24.326973 -0.000000 -32.862282
LeftUpLeg -40.033707 22.093307 -8.350919
LeftLeg 30.515575 -0.000000 -0.000000
LeftFoot -9.028051 10.079789 -11.572556
LeftToeBase -6.983861 -0.000000 0.000000
RightUpLeg -25.780749 -8.591782 -1.473001
RightLeg 10.583685 -0.000000 -0.000000
RightFoot -13.269927 -10.757198 16.532085
RightToeBase 10.515124 -0.000000 -0.000000
108
root 9.654896 36.507670 -2.924611 -14.143189 -84.048750 37.176175
Spine -17.715465 3.472944 -0.809431
Head 10.465653 18.513964 0.067331
LeftShoulder -5.036564 13.905147 24.982871
LeftArm 18.461532 -30.112476 -54.346519
LeftForeArm 16.021547 0.000000 22.427015
LeftHand -12.718714 -0.000000 -8.881255
LeftHandThumb1 -26.253704 0.000000 33.147579
RightShoulder -23.832652 -42.361515 -8.779481
RightArm 52.968527 39.739201 59.309375
RightForeArm 7.337855 -0.000000 15.307442
RightHand -2.369486 -0.000000 5.541430
RightHandThumb1 -24.326973 -0.000000 -32.862282
LeftUpLeg -40.373538 22.409669 -9.035002
LeftLeg 31.038621 -0.000000 -0.000000
LeftFoot -9.392595 10.328687 -11.708955
LeftToeBase -6.983345 -0.000000 0.000000
RightUpLeg -25.691828 -8.790643 -1.459357
RightLeg 10.493086 -0.000000 -0.000000
RightFoot -13.249737 -10.842433 16.505501
RightToeBase 10.476499 -0.000000 -0.000000
109
root 9.658504 36.513008 -2.928128 -13.382861 -83.840954 36.410619
Spine -17.688922 3.594133 -0.843835
Head 10.406670 18.951405 0.025265
LeftShoulder -5.062464 13.945875 24.965953
LeftArm 18.361790 -29.600714 -54.982219
LeftForeArm 15.945987 -0.000000 23.706735
LeftHand -13.043976 -0.000000 -8.406215
LeftHandThumb1 -26.253704 0.000000 33.147579
RightShoulder -23.963227 -42.479514 -8.578367
RightArm 52.689998 39.327371 59.307349
RightForeArm 7.658048 -0.000000 16.023562
RightHand -2.302228 -0.000000 5.042149
RightHandThumb1 -24.326973 -0.000000 -32.862282
LeftUpLeg -40.732454 22.807721 -9.761992
LeftLeg 31.536162 -0.000000 -0.000000
LeftFoot -9.766235 10.605595 -11.843584
LeftToeBase -6.849100 -0.000000 0.000000
RightUpLeg -25.632618 -8.968920 -1.444168
RightLeg 10.426187 -0.000000 -0.000000
RightFoot -13.253920 -10.900614 16.542434
RightToeBase 10.494764 -0.000000 -0.000000
110
root 9.660660 36.517760 -2.930167 -12.565820 -83.629027 35.597218
Spine -17.680912 3.698204 -0.870236
Head 10.365064 19.387902 -0.009515
LeftShoulder -5.080625 14.007123 24.954312
LeftArm 18.195386 -29.029677 -55.602009
LeftForeArm 15.780278 -0.000000 25.055170
LeftHand -13.338847 0.000000 -7.887687
LeftHandThumb1 -26.253704 0.000000 33.147579
RightShoulder -24.103103 -42.603427 -8.382691
RightArm 52.395205 38.860862 59.302316
RightForeArm 7.875492 -0.000000 16.821361
RightHand -2.334653 -0.000000 4.581321
RightHandThumb1 -24.326973 -0.000000 -32.862282
LeftUpLeg -41.092517 23.250403 -10.520149
LeftLeg 31.994329 -0.000000 -0.000000
LeftFoot -10.095484 10.913756 -11.977538
LeftToeBase -6.759358 -0.000000 0.000000
RightUpLeg -25.577145 -9.143388 -1.419872
RightLeg 10.355710 -0.000000 -0.000000
RightFoot -13.252333 -10.983595 16.534131
RightToeBase 10.480779 -0.000000 -0.000000
111
root 9.662097 36.521036 -2.928745 -11.885356 -83.457310 34.940706
Spine -17.698599 3.829828 -0.897099
Head 10.313877 19.847434 -0.039280
LeftShoulder -5.086644 14.083078 24.939915
LeftArm 17.899185 -28.366001 -56.184928
LeftForeArm 15.747234 -0.000000 26.571157
LeftHand -13.655732 0.000000 -7.392903
LeftHandThumb1 -26.253704 0.000000 33.147579
RightShoulder -24.245819 -42.748277 -8.168384
RightArm 52.133277 38.389195 59.311648
RightForeArm 7.989512 -0.000000 17.662710
RightHand -2.247908 -0.000000 4.126300
RightHandThumb1 -24.326973 -0.000000 -32.862282
LeftUpLeg -41.452446 23.735954 -11.300453
LeftLeg 32.388647 -0.000000 -0.000000
LeftFoot -10.423446 11.281914 -12.099198
LeftToeBase -6.617580 -0.000000 0.000000
RightUpLeg -25.564038 -9.263922 -1.409846
RightLeg 10.325057 -0.000000 -0.000000
RightFoot -13.249410 -11.061233 16.524494
RightToeBase 10.425726 -0.000000 -0.000000
112
root 9.663338 36.523277 -2.926509 -10.908176 -83.241505 33.992175
Spine -17.719328 3.912622 -0.906466
Head 10.225131 20.275403 -0.068712
LeftShoulder -5.130810 14.216701 24.904844
LeftArm 17.640264 -27.633695 -56.746818
LeftForeArm 15.517647 0.000000 28.169343
LeftHand -13.857148 -0.000000 -6.998555
LeftHandThumb1 -26.253704 0.000000 33.147579
RightShoulder -24.436889 -42.884185 -7.900362
RightArm 51.825452 37.851235 59.192047
RightForeArm 8.130380 -0.000000 18.529699
RightHand -2.216227 -0.000000 4.091697
RightHandThumb1 -24.326973 -0.000000 -32.862282
LeftUpLeg -41.799906 24.153165 -12.041516
LeftLeg 32.757065 -0.000000 -0.000000
LeftFoot -10.720896 11.656482 -12.249253
LeftToeBase -6.469016 -0.000000 0.000000
RightUpLeg -25.544862 -9.405825 -1.382556
RightLeg 10.289931 -0.000000 -0.000000
RightFoot -13.276775 -11.161266 16.555786
RightToeBase 10.452398 -0.000000 -0.000000
113
root 9.663285 36.524270 -2.923417 -9.667871 -82.999969 32.803619
Spine -17.772079 3.962395 -0.882465
Head 10.122241 20.733876 -0.107388
LeftShoulder -5.183707 14.372744 24.833239
LeftArm 17.377086 -26.930386 -57.331382
LeftForeArm 15.511971 0.000000 29.846332
LeftHand -14.073370 -0.000000 -6.693866
LeftHandThumb1 -26.253704 0.000000 33.147579
RightShoulder -24.703916 -43.088455 -7.544201
RightArm 51.654338 37.323648 59.108200
RightForeArm 8.162927 -0.000000 19.386912
RightHand -2.162906 -0.000000 3.846088
RightHandThumb1 -24.326973 -0.000000 -32.862282
LeftUpLeg -42.137433 24.498214 -12.726999
LeftLeg 33.074040 -0.000000 -0.000000
LeftFoot -10.971955 12.025090 -12.476729
LeftToeBase -6.415915 -0.000000 0.000000
RightUpLeg -25.544908 -9.565851 -1.323355
RightLeg 10.256276 -0.000000 -0.000000
RightFoot -13.312601 -11.269590 16.598457
RightToeBase 10.425098 -0.000000 -0.000000
114
root 9.662449 36.524321 -2.919945 -8.379498 -82.760247 31.572627
Spine -17.833567 3.987565 -0.842845
Head 10.000143 21.205013 -0.144569
LeftShoulder -5.272418 14.583449 24.736333
LeftArm 17.112920 -26.117757 -57.857715
LeftForeArm 15.439503 -0.000000 31.531174
LeftHand -14.240235 0.000000 -6.338314
LeftHandThumb1 -26.253704 0.000000 33.147579
RightShoulder -24.972818 -43.289620 -7.184702
RightArm 51.540699 36.791269 59.065008
RightForeArm 7.967680 -0.000000 20.213176
RightHand -1.945088 -0.000000 4.005045
RightHandThumb1 -24.326973 -0.000000 -32.862282
LeftUpLeg -42.420030 24.788076 -13.350694
LeftLeg 33.285050 -0.000000 -0.000000
LeftFoot -11.294207 12.478153 -12.719551
LeftToeBase -6.130485 -0.000000 0.000000
RightUpLeg -25.544836 -9.697094 -1.260254
RightLeg 10.219040 -0.000000 -0.000000
RightFoot -13.362560 -11.395810 16.685651
RightToeBase 10.389394 -0.000000 -0.000000
115
root 9.658303 36.522174 -2.915050 -6.963596 -82.509171 30.202338
Spine -17.891103 4.000201 -0.781678
Head 9.874457 21.648146 -0.183869
LeftShoulder -5.395710 14.859805 24.599925
LeftArm 16.949331 -25.401471 -58.455849
LeftForeArm 15.552107 -0.000000 33.235834
LeftHand -14.271320 0.000000 -6.178038
LeftHandThumb1 -26.253704 0.000000 33.147579
RightShoulder -25.252877 -43.481895 -6.787391
RightArm 51.388404 36.240031 58.970470
RightForeArm 7.677381 -0.000000 21.109059
RightHand -1.773487 -0.000000 4.181094
RightHandThumb1 -24.326973 -0.000000 -32.862282
LeftUpLeg -42.680201 25.055730 -13.935522
LeftLeg 33.481454 -0.000000 -0.000000
LeftFoot -11.606697 12.843928 -12.967588
LeftToeBase -5.743365 -0.000000 0.000000
RightUpLeg -25.524109 -9.831488 -1.174089
RightLeg 10.180132 -0.000000 -0.000000
RightFoot -13.423095 -11.547857 16.726874
RightToeBase 10.394861 -0.000000 -0.000000
116
root 9.652794 36.518485 -2.909232 -5.444658 -82.257805 28.726932
Spine -17.952654 4.009141 -0.698261
Head 9.765074 22.089593 -0.208693
LeftShoulder -5.535390 15.142105 24.439931
LeftArm 16.816538 -24.741470 -59.106156
LeftForeArm 15.865772 0.000000 34.937692
LeftHand -14.256124 0.000000 -6.136666
LeftHandThumb1 -26.253704 0.000000 33.147579
RightShoulder -25.480110 -43.669434 -6.445069
RightArm 51.117235 35.597222 58.801055
RightForeArm 7.588139 -0.000000 22.137667
RightHand -1.972255 0.000000 4.203509
RightHandThumb1 -24.326973 -0.000000 -32.862282
LeftUpLeg -42.899647 25.347236 -14.513927
LeftLeg 33.552955 -0.000000 -0.000000
LeftFoot -11.801685 13.164966 -13.077299
LeftToeBase -5.784574 -0.000000 0.000000
RightUpLeg -25.489221 -9.884750 -1.098041
RightLeg 10.136659 -0.000000 -0.000000
RightFoot -13.510784 -11.755741 16.822990
RightToeBase 10.413425 -0.000000 -0.000000
117
root 9.646724 36.514199 -2.902091 -3.799137 -81.949027 27.119388
Spine -18.012571 3.946411 -0.585224
Head 9.660370 22.538169 -0.229435
LeftShoulder -5.695304 15.411502 24.271421
LeftArm 16.681624 -24.084087 -59.803916
LeftForeArm 16.190995 -0.000000 36.616042
LeftHand -14.185674 0.000000 -6.093492
LeftHandThumb1 -26.253704 0.000000 33.147579
RightShoulder -25.709737 -43.894289 -6.096051
RightArm 50.900265 34.907591 58.659233
RightForeArm 7.538091 -0.000000 23.139591
RightHand -1.910451 0.000000 4.527845
RightHandThumb1 -24.326973 -0.000000 -32.862282
LeftUpLeg -43.043980 25.514136 -14.983310
LeftLeg 33.542940 -0.000000 -0.000000
LeftFoot -12.011251 13.376405 -13.147024
LeftToeBase -5.396737 -0.000000 0.000000
RightUpLeg -25.445466 -10.026520 -0.985104
RightLeg 10.091609 -0.000000 -0.000000
RightFoot -13.585312 -11.931886 16.920521
RightToeBase 10.340367 -0.000000 -0.000000
118
root 9.640334 36.510105 -2.894393 -2.201320 -81.645925 25.589141
Spine -18.112290 3.931574 -0.505720
Head 9.571564 22.885038 -0.194773
LeftShoulder -5.850109 15.633717 24.121013
LeftArm 16.563824 -23.430610 -60.567255
LeftForeArm 16.515894 -0.000000 38.257117
LeftHand -14.084595 -0.000000 -6.080061
LeftHandThumb1 -26.253704 0.000000 33.147579
RightShoulder -25.975988 -44.129356 -5.675086
RightArm 50.584909 34.132591 58.376375
RightForeArm 7.697120 0.000000 24.177165
RightHand -2.134174 -0.000000 3.954322
RightHandThumb1 -24.326973 -0.000000 -32.862282
LeftUpLeg -43.177037 25.641148 -15.411202
LeftLeg 33.455763 -0.000000 -0.000000
LeftFoot -12.141780 13.499638 -13.251511
LeftToeBase -5.135711 -0.000000 0.000000
RightUpLeg -25.422051 -10.113591 -0.879208
RightLeg 10.031845 -0.000000 -0.000000
RightFoot -13.668212 -12.123060 17.070273
RightToeBase 10.345089 -0.000000 -0.000000
